<svg width="16" height="16" viewBox="0 0 16 16" fill="none" xmlns="http://www.w3.org/2000/svg">
<path d="M7.99998 8.86666C7.91331 8.86666 7.82664 8.84667 7.74664 8.80001L1.85998 5.39335C1.61998 5.25335 1.53997 4.94666 1.67997 4.70666C1.81997 4.46666 2.11997 4.38665 2.36664 4.52665L7.99998 7.78666L13.6 4.54667C13.84 4.40667 14.1466 4.49335 14.2866 4.72668C14.4266 4.96668 14.34 5.27333 14.1066 5.41333L8.25999 8.80001C8.17332 8.84001 8.08664 8.86666 7.99998 8.86666Z" fill="#2C43C4"/>
<path d="M8 14.9067C7.72667 14.9067 7.5 14.6801 7.5 14.4067V8.36005C7.5 8.08671 7.72667 7.86005 8 7.86005C8.27333 7.86005 8.5 8.08671 8.5 8.36005V14.4067C8.5 14.6801 8.27333 14.9067 8 14.9067Z" fill="#2C43C4"/>
<path d="M8.00016 15.1666C7.4135 15.1666 6.83349 15.04 6.37349 14.7866L2.8135 12.8067C1.84683 12.2733 1.09351 10.9866 1.09351 9.87998V6.1133C1.09351 5.00663 1.84683 3.72666 2.8135 3.18666L6.37349 1.21331C7.28683 0.706646 8.7135 0.706646 9.62683 1.21331L13.1868 3.19329C14.1535 3.72663 14.9068 5.0133 14.9068 6.11997V9.88665C14.9068 10.9933 14.1535 12.2733 13.1868 12.8133L9.62683 14.7866C9.16683 15.04 8.58683 15.1666 8.00016 15.1666ZM8.00016 1.83331C7.58016 1.83331 7.16683 1.91998 6.86017 2.08664L3.30017 4.06663C2.66017 4.42663 2.09351 5.37997 2.09351 6.11997V9.88665C2.09351 10.62 2.66017 11.58 3.30017 11.94L6.86017 13.92C7.46683 14.26 8.53349 14.26 9.14016 13.92L12.7002 11.94C13.3402 11.58 13.9068 10.6267 13.9068 9.88665V6.11997C13.9068 5.38664 13.3402 4.42663 12.7002 4.06663L9.14016 2.08664C8.83349 1.91998 8.42016 1.83331 8.00016 1.83331Z" fill="#2C43C4"/>
<path d="M11.3335 9.32668C11.0602 9.32668 10.8335 9.10001 10.8335 8.82668V6.68003L4.75354 3.17336C4.51354 3.03336 4.43352 2.72668 4.57352 2.49334C4.71352 2.25334 5.01354 2.17333 5.25354 2.31333L11.5802 5.96669C11.7335 6.05336 11.8335 6.22 11.8335 6.4V8.84002C11.8335 9.10002 11.6069 9.32668 11.3335 9.32668Z" fill="#2C43C4"/>
</svg>
