<svg width="41" height="40" viewBox="0 0 41 40" fill="none" xmlns="http://www.w3.org/2000/svg">
<g clip-path="url(#clip0_9_78)">
<path d="M2.16663 1.66667H8.83329L13.3 23.9833C13.4524 24.7507 13.8698 25.4399 14.4792 25.9305C15.0886 26.4211 15.8511 26.6817 16.6333 26.6667H32.8333C33.6155 26.6817 34.378 26.4211 34.9874 25.9305C35.5968 25.4399 36.0142 24.7507 36.1666 23.9833L38.8333 10H10.5M17.1666 35C17.1666 35.9205 16.4204 36.6667 15.5 36.6667C14.5795 36.6667 13.8333 35.9205 13.8333 35C13.8333 34.0795 14.5795 33.3333 15.5 33.3333C16.4204 33.3333 17.1666 34.0795 17.1666 35ZM35.5 35C35.5 35.9205 34.7538 36.6667 33.8333 36.6667C32.9128 36.6667 32.1666 35.9205 32.1666 35C32.1666 34.0795 32.9128 33.3333 33.8333 33.3333C34.7538 33.3333 35.5 34.0795 35.5 35Z" stroke="#E6EAFD" stroke-width="4" stroke-linecap="round" stroke-linejoin="round"/>
</g>
<defs>
<clipPath id="clip0_9_78">
<rect width="40" height="40" fill="white" transform="translate(0.5)"/>
</clipPath>
</defs>
</svg>
