<svg width="33" height="32" viewBox="0 0 33 32" fill="none" xmlns="http://www.w3.org/2000/svg">
<g clip-path="url(#clip0_58_150)">
<path d="M12.8542 29.3333C13.5905 29.3333 14.1875 28.7364 14.1875 28C14.1875 27.2636 13.5905 26.6667 12.8542 26.6667C12.1178 26.6667 11.5208 27.2636 11.5208 28C11.5208 28.7364 12.1178 29.3333 12.8542 29.3333Z" fill="#1F264A"/>
<path d="M27.5208 29.3333C28.2572 29.3333 28.8542 28.7364 28.8542 28C28.8542 27.2636 28.2572 26.6667 27.5208 26.6667C26.7845 26.6667 26.1875 27.2636 26.1875 28C26.1875 28.7364 26.7845 29.3333 27.5208 29.3333Z" fill="#1F264A"/>
<path d="M2.1875 1.33334H7.52083L11.0942 19.1867C11.2161 19.8005 11.55 20.352 12.0376 20.7444C12.5251 21.1369 13.1351 21.3453 13.7608 21.3333H26.7208C27.3466 21.3453 27.9566 21.1369 28.4441 20.7444C28.9316 20.352 29.2656 19.8005 29.3875 19.1867L31.5208 8.00001H8.85417" fill="#1F264A"/>
<path d="M2.1875 1.33334H7.52083L11.0942 19.1867C11.2161 19.8005 11.55 20.352 12.0376 20.7444C12.5251 21.1369 13.1351 21.3453 13.7608 21.3333H26.7208C27.3466 21.3453 27.9566 21.1369 28.4441 20.7444C28.9316 20.352 29.2656 19.8005 29.3875 19.1867L31.5208 8.00001H8.85417M14.1875 28C14.1875 28.7364 13.5905 29.3333 12.8542 29.3333C12.1178 29.3333 11.5208 28.7364 11.5208 28C11.5208 27.2636 12.1178 26.6667 12.8542 26.6667C13.5905 26.6667 14.1875 27.2636 14.1875 28ZM28.8542 28C28.8542 28.7364 28.2572 29.3333 27.5208 29.3333C26.7845 29.3333 26.1875 28.7364 26.1875 28C26.1875 27.2636 26.7845 26.6667 27.5208 26.6667C28.2572 26.6667 28.8542 27.2636 28.8542 28Z" stroke="#1F264A" stroke-width="3" stroke-linecap="round" stroke-linejoin="round"/>
</g>
<defs>
<clipPath id="clip0_58_150">
<rect width="32" height="32" fill="white" transform="translate(0.854004)"/>
</clipPath>
</defs>
</svg>
