<svg width="41" height="40" viewBox="0 0 41 40" fill="none" xmlns="http://www.w3.org/2000/svg">
<path d="M35.2333 7.68333C34.3821 6.83167 33.3714 6.15608 32.2589 5.69514C31.1465 5.2342 29.9541 4.99696 28.75 4.99696C27.5459 4.99696 26.3535 5.2342 25.2411 5.69514C24.1286 6.15608 23.1179 6.83167 22.2667 7.68333L20.5 9.45L18.7333 7.68333C17.0138 5.96385 14.6817 4.99785 12.25 4.99785C9.81827 4.99785 7.48615 5.96385 5.76666 7.68333C4.04717 9.40282 3.08118 11.7349 3.08118 14.1667C3.08118 16.5984 4.04717 18.9305 5.76666 20.65L20.5 35.3833L35.2333 20.65C36.085 19.7987 36.7606 18.788 37.2215 17.6756C37.6825 16.5632 37.9197 15.3708 37.9197 14.1667C37.9197 12.9625 37.6825 11.7702 37.2215 10.6577C36.7606 9.54531 36.085 8.53459 35.2333 7.68333Z" stroke="#E6EAFD" stroke-width="4" stroke-linecap="round" stroke-linejoin="round"/>
</svg>
